<svg xmlns="http://www.w3.org/2000/svg" fill="none" viewBox="0 0 227 203"><path fill="#EAEAEA" d="M150.903 32.707l66.419 144.998-20.993 12.922-146.362-25.343L.937 38.983l149.966-6.276z"/><path fill="#686868" d="M193.957 138.811l9.782 16.42-8.945-17.189-.837.769zm10.234-6.969l2.225 20.274-3.282-19.94 1.057-.334zm12.597 3.673l-5.733 17.72 4.439-18.298 1.294.578zm-114.029 35.682l18.917 2.728-18.989-3.863.072 1.135zm1.022-12.34l17.157 11.027-17.562-9.995.405-1.032zm10.78-7.479l10.166 15.604-11.429-14.962 1.263-.642z"/><path fill="#fff" d="M46.699 135.212l2.222-7.714 10.722 3.138-9.545 24.319-4.315.915-3.268-2.353 4.184-18.305zm32.163 13.336l-.915-19.089 9.937.523-2.615 23.535-3.792 2.353-2.615-.915v-6.407z"/><path fill="#686868" d="M54.412 102.918l1.961-13.467 19.482 3.007 15.297-4.838.523 11.768-.523 14.905-14.774 1.438-2.746-10.721-5.1 9.283-15.166-3.138 1.046-8.237z"/><path fill="#EF7C31" d="M60.688 31.923l5.492-3.4 15.036-.392 5.36 1.438 2.354 4.446 1.438 12.16-2.615 1.307v20.396l1.961 6.799 1.438 12.944-15.297 4.837-13.336-1.7-6.276-1.307V78.47l1.177-19.22H45.783l.785-3.923 2.876-11.767 4.053-5.753 7.191-5.883z"/><path fill="#D5AA8C" d="M47.22 59.244h10.954l-.67 5.605 11.176 6.726 4.47 1.121 2.236-1.12h3.8l4.247 3.138 1.118 1.345-.67 1.346-1.118-.897-1.118.448-.223 1.57-1.118.224-.224 1.121-.894.673-1.117.897-3.13-1.57-2.682.673-1.789-2.467-10.506-2.914-10.953-4.709-1.788-2.466v-8.744zm42.249-12.78l-2.012.897.224 15.694 6.706 8.969.67 1.793.67 2.242 2.46 1.57 1.788-.673 2.012-2.242.67-3.587-1.117-2.018-4.471-1.794-3.13-8.52-3.129-6.726-1.341-5.605zM68.14 114.162l-12.872-2.677-2.235 7.399-4.248 8.744 10.73 3.139 2.012-2.242.894-3.588 5.72-10.775zm22 .237l-12.742 1.122.447 14.125 9.835.448 1.118-7.399 1.341-8.296z"/><path fill="#979797" d="M41.86 156.132l.654-2.877 3.269 2.877 4.053-1.308.784-.784 1.83.784 5.23 5.23 1.831 4.315-4.053 2.222-6.145-1.307-5.1-4.576-2.353-4.576zm35.825-1.308l1.177-1.046v1.046l2.615 1.046 3.922-2.353v-.654l4.838 1.569 7.06 3.007 3.007 2.353-1.438 1.962-7.322.653-10.59-2.353c-1.22-.479-3.661-1.491-3.661-1.7 0-.209.261-2.44.392-3.53z"/><path fill="#B40D13" d="M218.107 177.967l-20.658 13.728-17.128-3.007-35.432-6.93-7.452-17.128.653-5.099 1.569-2.222 2.354 1.307 4.184 4.838v2.615l4.314-2.092 1.961-2.746 2.615-1.046 1.046-9.283 2.223-1.438 26.411 13.99 16.605 3.922 15.689 1.438 1.046 9.153z"/><path fill="#000" d="M112.987 126.322l29.287 32.556-2.092-.915-1.83 1.699-21.051-24.319-12.159-13.466-18.697-18.566L73.11 89.582l-1.569-3.66.654-5.361 2.484-.654-1.046 6.014 2.223 2.877 4.184-3.4h2.876l4.315 5.753v3.661l4.314 5.622-1.176 1.7 20.788 22.357.393-2.222 13.074-4.184 2.092.523-24.711-28.634-5.36-6.276-1.047-2.091.131-5.623 2.223 1.439-.13 4.576 15.166 17.52 44.504 49.263.342-1.541c1.482-.61 4.498-1.856 4.707-1.961l.654-3.53 2.876-1.438 7.06-.654 7.845.654 3.792 1.438.915 5.491.915 4.315v18.566l-6.014 3.269h-11.637l-5.752-2.354-.654-5.36-4.315-1.7-.829-13.026-.609.997-26.672-29.679-4.577-1.831-12.551 3.4v2.484zM86.445 70.493l-4.184 3.4-2.092-1.57 2.223-2.091 2.092-1.7 11.113-.915h3.661l.916 1.96v2.354l-1.7-2.353-7.06.654-4.969.261zm98.322 101.46h4.837l2.485.784 4.837 2.876 3.53 5.884-.653 7.583-3.792 4.054c-4.533.087-13.65.209-13.859 0-.209-.21-2.179-2.79-3.138-4.054l-1.7-7.06 2.354-6.407 5.099-3.66zm17.912-9.153l-1.177 4.446 14.252 2.876.915 7.06 1.046 1.177h1.7l1.176-.784 1.569-4.184v-6.145l-3.399-5.753-5.884-3.138-6.014.784-4.184 3.661zm-58.575 21.181l8.63-9.806 8.76 2.484 11.636 1.046v10.329l-9.936 2.746-19.612-2.746-.393-1.569.915-2.484zm-17.258-7.714l2.092 4.053 12.813 3.661 3.922-2.615 1.569-4.707-1.569-6.929-3.922-4.707-5.361-1.046-4.576 1.046-4.445 3.792-.523 7.452z"/><path fill="#D8D8D8" d="M181.498 187.773c1.046 3.66 4.619 5.273 6.275 5.622 5.361.392 6.276-2.485 7.322-4.707 1.046-2.223.262-6.407-3.268-10.068-3.531-3.661-7.584-2.092-9.414-.653-1.831 1.438-2.223 5.229-.915 9.806zm-49.815-18.959c-3.792 2.615-1.7 10.329 0 12.421l6.93 1.7c.435 0 1.516-.262 2.353-1.308 1.83-2.614 1.177-7.191 0-9.806-1.177-2.615-5.491-5.622-9.283-3.007zm79.102-6.406c-4.315-.262-6.538 2.484-6.668 5.36l11.505 2.354.916 5.622c.566 0 1.673-.942 1.569-4.707-.131-4.707-3.008-8.368-7.322-8.629z"/><path fill="#fff" fill-rule="evenodd" d="M138.396 127.868l-11.375-9.152.173-.216 11.375 9.152-.173.216zm-25.376-1.187l-2.223-2.222.196-.196 2.222 2.223-.195.195zm51.081 16.317c-.492-.341-.853-.698-1.031-1.055l.247-.124c.149.296.466.622.941.952.473.328 1.092.653 1.826.955 1.468.604 3.388 1.107 5.509 1.351 4.247.488 9.273-.068 13.091-2.915l.166.222c-3.896 2.906-9.003 3.461-13.288 2.969-2.144-.247-4.089-.756-5.584-1.371-.746-.307-1.384-.641-1.877-.984zm-1.569 2.282h.277v3.42c3.092.711 7.905 1.469 12.433 1.466 2.29-.002 4.501-.198 6.378-.692 1.878-.493 3.405-1.28 4.346-2.45l.216.174c-.994 1.235-2.586 2.044-4.492 2.544-1.907.502-4.145.699-6.448.701-4.607.003-9.501-.777-12.603-1.498l-.107-.024v-3.641zm-3.534 2.927l-.962-.448.117-.251.958.445c3.191 1.485 5.652 2.629 7.787 3.341.571.19 1.83.386 3.466.504a45.19 45.19 0 005.651.045c2.029-.114 4.09-.383 5.86-.882 1.774-.5 3.237-1.226 4.093-2.24l.212.179c-.909 1.077-2.437 1.823-4.23 2.328-1.796.506-3.879.777-5.919.891a45.382 45.382 0 01-5.687-.045c-1.637-.118-2.927-.315-3.533-.517-2.151-.717-4.627-1.869-7.813-3.35zm12.423 7.802c-5.644-.394-9.851-1.839-13.925-4.467l.151-.233c4.032 2.602 8.193 4.033 13.793 4.424 2.803.195 6.128.13 8.978-.245 1.425-.187 2.727-.451 3.785-.797 1.062-.347 1.858-.771 2.29-1.265l.208.183c-.482.551-1.337.994-2.412 1.345-1.08.353-2.4.62-3.835.809-2.87.377-6.214.443-9.033.246zm45.682 6.898c-3.876-3.23-8.148-3.75-11.758-2.331l-.102-.258c3.711-1.458 8.089-.914 12.038 2.376.984.82 1.722 1.541 2.256 2.322.536.785.861 1.626 1.028 2.682.33 2.098.032 5.063-.49 10.152l-.275-.028c.524-5.109.814-8.028.491-10.081-.16-1.019-.472-1.821-.983-2.568-.512-.751-1.227-1.452-2.205-2.266zm-80.227 2.642c-2.323-.646-4.637-.319-6.037.509l-.141-.239c1.476-.872 3.869-1.199 6.253-.537 2.389.664 4.776 2.324 6.233 5.435a19 19 0 011.811 8.067c0 1.054-.091 1.919-.181 2.529a14.925 14.925 0 01-.147.82l-.019.094-.011.053-.002.012v-.01h-.277c0-.019.004-.042.006-.052l.001-.001.012-.059.04-.196c.033-.165.078-.402.123-.701.089-.6.178-1.451.178-2.489 0-2.076-.357-4.899-1.785-7.949-1.42-3.034-3.74-4.643-6.057-5.286zm29.905 2.105c-1.788-.439-3.252-.999-4.185-1.599l.149-.233c.897.576 2.327 1.127 4.102 1.563 1.772.435 3.88.752 6.127.866 4.497.229 9.536-.359 13.56-2.436l.127.246c-4.083 2.108-9.177 2.697-13.701 2.467-2.264-.115-4.389-.435-6.179-.874zm21.361 5.992c-1.991-.45-3.916-.464-5.183-.249l-.046-.273c1.305-.222 3.267-.205 5.29.252 2.023.458 4.12 1.361 5.683 2.924 1.973 1.973 3.136 3.761 3.633 6.15.496 2.379.329 5.342-.325 9.658l-.274-.041c.653-4.313.813-7.234.328-9.561-.483-2.319-1.608-4.061-3.558-6.01-1.514-1.515-3.558-2.399-5.548-2.85zm-24.479 14.244l9.76-10.15.199.192-9.767 10.158v2.821h-.277v-2.751l-19.749-1.949.028-.276 19.806 1.955z" clip-rule="evenodd"/><path fill="#000" fill-rule="evenodd" d="M87.615 47.612V32.707h.277v14.905h-.277zm-29.68 11.755l1.047-11.245.275.026-1.046 11.244-.275-.025zm15.578 45.703l4.838-8.107.238.143-4.838 8.106-.238-.142zM89 155.206l-2.484 1.438-.139-.24 2.484-1.438.14.24zm2.114.507l-2.092 1.831-.182-.209 2.091-1.83.183.208zm-39.909.936l-3.53 1.7-.12-.25 3.53-1.7.12.25zm41.078.509l-1.57 1.177-.166-.222 1.57-1.177.166.222zM52 158.343l-2.223 1.308-.14-.239 2.222-1.307.14.238zm2.473 1.314l-2.484 1.176-.119-.25 2.484-1.177.119.251zM81.378 9.044l3.028.624-.056.272-2.978-.615-7.751 1.272-.045-.273 7.802-1.28zm15.108 61.62l.93 1.062 1.264 2.907 1.25-.455.36-1.197-.639-1.788.261-.093.669 1.873-.425 1.418-1.626.591-1.29-2.965-1.343 1.007.22.55.346.693 1.272.925h3.616v.277h-3.706l-.913-.663.664 1.328 2.17.766-.092.261-2.275-.803-.954-1.906-.107-.079-.578-1.443 1.535-1.15-.817-.934.208-.183zm-14.974 6.335l-3.4-3.268.192-.2 3.4 3.269-.192.2zm1.254-1.668l-.502-1.256.257-.103.543 1.359-.543 1.359-.257-.103.502-1.256zm-2.554 3.506l-3.66-3.007.175-.214 3.661 3.007-.176.214zm-1.039 1.705l-3.792-2.746.163-.224 3.792 2.746-.163.224zm9.31 45.373l-2.68 1.742-2.555-1.21.119-.25 2.414 1.143 2.55-1.657.151.232zm-31.57 1.66l.23-.153 1.558 2.337.9.772-.18.211-.93-.797-1.579-2.37z" clip-rule="evenodd"/><path fill="#000" d="M69.713 8.849l-1.87 17.119L85.355 9.52l-.85-3.625-10.218-.639-4.574 3.593z"/><path fill="#D5AA8C" d="M85.065 12.65l.006-2.816.122-.594-.77-.44-7.132 2.246-2.178 4.231-.759-3.091-1.63-1.236-1.474.99.026 2.286-4.733 15.989 8.455 3.487 3.62-.689 1.285-6.758.385.08 1.143-.33.754-2.178.908-1.615.597-.666.256-1.242 1.27-.302.166-.81-.854-2.823.555-1.576-.018-2.144z"/><path fill="#000" fill-rule="evenodd" d="M84.944 14.529l.106-5.292.278.005-.108 5.332-.512 1.622.799 3.079-.148.716-.271-.056.134-.653-.803-3.094.524-1.66zm-11.216-.863l-1.09-1.231.208-.184 1.269 1.434-1.244 1.156.7 1.01-.228.157-.836-1.206 1.221-1.136zm-2.584-1.62l.15 5.349 1.207.441.095-.26-1.03-.377-.146-5.16-.277.007zm11.12 7.604l.87.864.572.019-.196.953-1.411 2.068-.863 2.347-.92.303-4.552-1.804-2.808-5.509-.247.126 2.855 5.602 4.743 1.88 1.143-.377.897-2.44 1.423-2.086.274-1.33-.792-.025-.793-.788-.195.197zm-1.11-6.292l2.206.935-.648 1.53-1.605-.68-1.435.52-.58.66-1.248-1.1.862-.977 2.448-.888z" clip-rule="evenodd"/><path fill="#fff" d="M82.046 16.511L81.96 17.6l-3.02-.762.241-.502 2.865.176z"/><path fill="#000" d="M81.379 17.064a.541.541 0 11-1.06-.218.541.541 0 011.06.218z"/><path fill="#000" fill-rule="evenodd" d="M82.21 16.248l.02 1.376-.276.004-.018-1.119-2.656-.164-.358.542-.231-.153.446-.675 3.072.19zm-.72 6.081l1.486.45-.08.265-1.376-.417-.88.472-.131-.244.982-.526z" clip-rule="evenodd"/><path fill="#EF7C31" d="M86.88 9.437l7.42 2.676-13.103 2.327L70.7 11.986l-1.618 1.168.1-4.738 3.012-4.889 3.598-2.263 6.126 1.264 2.296 2.226 2.666 4.683z"/><path fill="#000" fill-rule="evenodd" d="M82.3 10.176l4.68-.889.051.272-4.68.889-.051-.272z" clip-rule="evenodd"/></svg>