<svg xmlns="http://www.w3.org/2000/svg" xmlns:xlink="http://www.w3.org/1999/xlink" viewBox="0 0 141 100.67"><g opacity=".15"><defs><path id="a" d="M6.36-13h127.69V94.5H6.36z" opacity=".15"/></defs><clipPath id="b"><use overflow="visible" xlink:href="#a"/></clipPath><g clip-path="url(#b)"><defs><path id="c" d="M133.96 91.01c0-60.63-17.12-41.63-63.33-66.14C24.43.37 6.6 53.63 6.6 92.07"/></defs><clipPath id="d"><use overflow="visible" xlink:href="#c"/></clipPath><g clip-path="url(#d)"><defs><path id="e" d="M6.36 18.64h127.69v73.54H6.36z"/></defs><clipPath id="f"><use overflow="visible" xlink:href="#e"/></clipPath><path fill="#A1AEAA" d="M5.21 17.06h130.12v76.6H5.21z" clip-path="url(#f)"/></g></g></g><defs><path id="g" d="M13 64h63v28H13z"/></defs><clipPath id="h"><use overflow="visible" xlink:href="#g"/></clipPath><path fill="none" stroke="gray" stroke-width=".3" d="M103.5 95.1V53.84h-2.56v39.85h-2.57V53.84h-2.56v39.85h-2.56V53.84h-2.57v39.85h-2.56V53.84h-2.57v39.85h-2.56V53.84h-2.56v39.85h-2.57V53.84H75.3v39.85h-2.57V53.84h-2.56v39.85h-2.56V53.84h-2.57v39.85h-2.56V53.84h-2.57v39.85h-2.56V53.84h-2.56v39.85h-2.57V53.84h-2.56v39.85h-2.57V53.84h-2.56v39.85h-2.56V53.84H39.4v39.85h-2.56V53.84h-2.57v39.85h-2.56V53.84h-2.56v39.85h-2.57V53.84h-2.56v39.85h-2.57V53.84h-2.56v39.85l-2.1 1.41-.47-41.26h-2.46 92.21l-.25 41.26-5.19-.94-81.38.24-4.61.99-.25-.29-.63-41.26.1 1.29h92.21v1.28H13.86v1.29h92.21v1.28H13.86v1.29h92.21v1.29H13.86v1.28h92.21v1.29H13.86v1.28h92.21v1.29H13.86v1.28h92.21v1.29H13.86v1.28h92.21v1.29H13.86v1.28h92.21v1.29H13.86v1.28h92.21v1.29H13.86v1.29h92.21v1.28H13.86v1.29h92.21v1.28H13.86v1.29h92.21v1.28H13.86v1.29h92.21v1.28H13.86v1.29h92.21v1.28H13.86v1.29h92.21v1.28H13.86" clip-path="url(#h)"/><path fill="#91A5A5" d="M75.92 92.53l-2.3-.66V69.1c0-.65 1.3-2.03 2.3-3v26.43zm-58.18-.82V69.2c0-.47-.07-.75-.37-1.25-.24-.4-1.74-1.98-2.81-3.08v-.02h61.36v.02a39.16 39.16 0 00-2.8 3.08c-.3.5-.38.78-.38 1.25v22.51h-55zm-.87.16l-2.31.66V66.1c1 .97 2.31 2.35 2.31 3v22.77zm59.05-28.13H13.46v29.2c0 .3.24.55.55.55.16 0 .3-.07.4-.18l2.96-.84h55.74l2.96.84a.55.55 0 00.96-.37v-29.2h-1.1z"/><path fill="none" d="M-47.23-26.57H89.26v85.25H-47.23z"/><g fill="#97CE8B"><path d="M122.28 89.22c.51.55.95 1.38.98 1.85.03.46-.36.39-.87-.17a3.81 3.81 0 01-.98-1.84c-.03-.47.36-.4.87.16z"/><path d="M123.37 89.13c-.1 1.13-.4 2.22-.68 2.44-.28.22-.42-.52-.32-1.65.1-1.12.4-2.21.67-2.43.28-.22.42.52.33 1.64z"/><path d="M124.05 90.42c-.57.76-1.27 1.28-1.57 1.17-.3-.1-.1-.8.47-1.56s1.27-1.28 1.58-1.17c.3.1.08.8-.48 1.56z"/></g><path fill="#97CE8B" d="M62.81 89.98H138v4.07H62.81z"/><path fill="#8E572A" d="M62.81 94.05H138v4.29H62.81z"/><g fill="#97CE8B"><ellipse cx="9" cy="88.39" rx=".66" ry="3.3"/><path d="M7.2 89.18c.62 1.35 1.38 2.4 1.68 2.35.32-.06.07-1.2-.55-2.55-.61-1.35-1.36-2.4-1.67-2.35-.31.06-.07 1.2.55 2.55z"/><path d="M9.44 88.86c-.4.97-.6 2.1-.48 2.53.12.43.54 0 .93-.98.4-.98.6-2.11.48-2.54-.12-.43-.54.01-.93.98z"/></g><g fill="#97CE8B"><path d="M30.96 89.06c.51.56.95 1.38.98 1.85.03.46-.36.4-.87-.16a3.81 3.81 0 01-.98-1.85c-.03-.47.36-.4.87.16z"/><path d="M32.04 88.98c-.1 1.13-.4 2.22-.67 2.44s-.42-.52-.32-1.65c.1-1.13.4-2.22.67-2.44.28-.22.42.52.32 1.65z"/><path d="M32.73 90.26c-.57.76-1.27 1.28-1.58 1.18-.3-.11-.09-.81.48-1.56.56-.76 1.27-1.28 1.57-1.18.3.1.1.8-.48 1.56z"/></g><g fill="#97CE8B"><path d="M58.85 88.85c.46.5.86 1.26.89 1.68.03.42-.32.36-.79-.15a3.47 3.47 0 01-.89-1.67c-.03-.42.32-.36.79.14z"/><path d="M59.83 88.78c-.08 1.02-.36 2.01-.61 2.2-.25.2-.38-.46-.3-1.49.1-1.02.37-2.01.62-2.2.25-.2.38.46.3 1.49z"/><path d="M60.45 89.94c-.51.69-1.15 1.16-1.42 1.07-.28-.1-.09-.73.43-1.42.51-.69 1.15-1.16 1.42-1.06.28.1.09.73-.43 1.41z"/></g><path fill="#97CE8B" d="M2.33 89.98h61.02v4.07H2.33z"/><path fill="#8E572A" d="M2.33 94.05H63.3v4.29H2.33z"/><path fill="#CF9E76" d="M102.09 45.86l2.6 2.65 9.22-7.85-.55-3.4-1.61-1.5z"/><path fill="#CF9E76" d="M107.66 38.18c-1.95 1.94-5.21 10.4-4 9.37 3.04-2.6 5.45-4.37 7.4-6.3 1.95-1.93 2.95-3.93 1.84-5.06-1.12-1.13-3.28.07-5.24 2z"/><path fill="#CF9E76" d="M109.08 37.09c1.8 4.2 1.4 5.74 3.17 4.98 1.78-.76.96-6.67-.84-10.86-1.8-4.2-3.89-5.09-5.67-4.33-1.78.77 1.54 6.02 3.34 10.21zm-4.13 11.12l-2.86-2.35-4.37 2.83.58 2.51 3.01-.26 2.56-1.08z"/><path fill="#CF9E76" d="M109.74 29.61l-5.58 1.95 4.08 10.08 4.99-1.39z"/><ellipse cx="109.77" cy="43.46" fill="#CF9E76" rx="1.02" ry="3.66" transform="rotate(50.55 109.77 43.47)"/><g fill="#CF9E76"><path d="M110.45 56c-2.44 5.79-3.07 11.9-.92 12.81 2.15.9 6.73-3.36 9.17-9.14 2.44-5.78 2.22-11.58.07-12.48-2.15-.91-5.87 3.04-8.32 8.82z"/><ellipse cx="109.69" cy="67.42" rx="2.36" ry="3.21" transform="rotate(-157.07 109.67 67.4)"/><path d="M108.44 70.39l3.19 1.52 5.59-10.73-4.16-1.75z"/><path d="M109.01 74.6c.97 4.4 1.57 5.74 3.2 5.55 1.63-.2 3.24-4.68 2.38-8.14-.81-3.3-4.14-1.9-4.22-3.54-.27-5.85-2.12 2.65-1.36 6.12z"/><path d="M113.91 85.94l-2.96.35-3.23-16.47 3.63 1.79z"/></g><path fill="#91A5A5" d="M113.89 44.16c.07.03.87.21 1.98.46 1.51-1.97 3.63-3.37 5.53-2.92 3.03.73 2.93 11.85.42 13.74-.54 1.93-1.04 3.71-1.32 4.86-.7-.13-10.63-2.22-11.09-2.35 2.12-9.8 3.2-14.32 4.48-13.79z"/><path fill="#383A39" d="M109.65 56.89c1.13-5.18 2.25-10.94 2.75-13.06.08.04 2.42.3 3.53.55 1.5-1.97 3.62-3.37 5.53-2.91.28.07.55.19.81.33 1.61 1.93 1.42 5.42.8 8.02-.48 1.95-.86 3.55-2.35 4.42-.54 1.92-1.05 3.7-1.32 4.86-.8-.16-7.26-1.67-9.75-2.21z"/><path fill="#CCC" d="M114.6 72.01c.1.38 1.2 4.58-.72 7.25l.03 6.68-2.82 1.7-1.1-9.39a29.37 29.37 0 01-1.2-4.8l5.8-1.44z"/><path fill="#E8E8E8" d="M108.6 86.55c1.8-1.25.72-8.23.72-8.23a29.44 29.44 0 01-1.2-4.8l3.54-.75c.07.3.14.62.18.98.3 2.5-.05 4.76-.8 6.02l.38 7.16-.72.45c-1.09-.07-2.92-.27-2.1-.83z"/><path fill="#5E6E66" d="M108.23 85.1c-.18.58 0 1.16.4 1.29.42.12.9-.24 1.08-.83.18-.58 0-1.16-.4-1.3-.42-.12-.9.25-1.08.84z"/><path fill="#5E6E66" d="M114.08 89.4l-12.1.1c-1.52.01.15-2.63 6.97-4.27.28.8 1.28 1.4 2.47 1.38 1.4 0 2.51-.84 2.52-1.85.31.48 1.66 4.15.14 4.64z"/><path fill="#383A39" d="M113.12 89.34c0 .52.17.94.36.94.2 0 .35-.42.34-.94 0-.52-.16-.94-.35-.94-.2 0-.36.42-.35.94zm-1.35.01c0 .53.17.95.36.95.2 0 .35-.43.35-.95s-.17-.94-.37-.94c-.19 0-.34.42-.34.94zm-1.35.02c0 .51.17.94.36.93.2 0 .35-.42.34-.94 0-.52-.16-.94-.36-.94-.19 0-.34.43-.34.95zm-4.72.03c0 .53.16.95.35.94.2 0 .35-.42.35-.94s-.17-.94-.36-.94c-.2 0-.35.43-.35.95zm-1.36.02c.01.52.17.94.37.94.19 0 .34-.43.34-.95s-.17-.94-.36-.94c-.2 0-.35.43-.35.95zm-1.34.01c0 .52.16.94.35.94.2 0 .35-.43.35-.95s-.17-.94-.36-.93c-.2 0-.35.42-.34.94z"/><path fill="#383A39" d="M112.65 88.37l.25-2.12c.62-.34 1.03-.88 1.03-1.49.32.48 1.67 4.15.15 4.64l-12.1.1c-.73 0-.71-.6.22-1.4 3.49-.25 10.45.27 10.45.27z"/><g fill="#EBC09B"><path d="M115.46 58.63c.06 6.27 1.92 12.14 4.25 12.11 2.34-.02 4.83-5.77 4.77-12.04-.07-6.27-2.58-11.5-4.92-11.47-2.33.02-4.16 5.13-4.1 11.4z"/><ellipse cx="119.31" cy="69.4" rx="2.36" ry="3.21" transform="rotate(179.38 119.54 69.54)"/><path d="M119.34 72.62l3.54.13.84-12.07-4.5.05z"/><path d="M121.55 76.25c2.64 3.65 3.73 4.65 5.14 3.82 1.42-.82 1.1-5.58-1.06-8.41-2.06-2.7-4.56-.1-5.28-1.57-2.58-5.25-.9 3.28 1.2 6.16z"/><path d="M130.56 84.71l-2.58 1.5-9.5-13.8 4.02.18z"/></g><path fill="#91A5A5" d="M114.69 45.49c.08.01.9 0 2.03-.02 1.02-2.27 2.74-4.12 4.7-4.12 3.12 0 5.61 10.84 3.61 13.26-.07 2-.15 3.85-.15 5.04-.7.03-10.85.32-11.33.3-.23-10.03-.24-14.67 1.14-14.46z"/><path fill="#383A39" d="M113.54 58.85c-.11-5.3-.37-11.16-.37-13.33.08.01 2.42-.27 3.55-.29 1.02-2.27 2.74-4.12 4.7-4.12.3 0 .59.05.87.13 2.02 1.5 2.64 4.94 2.64 7.61 0 2 0 3.66-1.25 4.85-.07 2-.15 3.85-.15 5.03-.81.03-7.45.08-9.99.12z"/><path fill="#CCC" d="M125.63 71.66c.26.3 2.93 3.72 2.24 6.93l2.69 6.12-1.9 2.67-4.76-8.16a29.04 29.04 0 01-3.02-3.94l4.75-3.62z"/><path fill="#E8E8E8" d="M125.93 87.38c1.15-1.85-2.61-7.83-2.61-7.83a29.02 29.02 0 01-3.02-3.93l2.94-2.1c.2.25.39.52.57.83 1.26 2.18 1.85 4.38 1.66 5.84l3.2 6.42-.48.7c-1.02.36-2.79.9-2.26.07z"/><path fill="#5E6E66" d="M124.72 84.8c-.17.6.03 1.17.44 1.29.41.12.88-.26 1.06-.84.17-.6-.02-1.17-.43-1.29-.42-.12-.89.26-1.07.84z"/><path fill="#5E6E66" d="M130.65 89.01l-12.1.3c-1.52.04.1-2.63 6.9-4.39.3.8 1.3 1.38 2.49 1.35 1.4-.03 2.5-.88 2.48-1.9.33.48 1.74 4.13.23 4.64z"/><ellipse cx="130.04" cy="88.96" fill="#383A39" rx=".35" ry=".94" transform="rotate(178.6 130.04 88.96)"/><path fill="#383A39" d="M128.34 89c.01.52.18.94.37.94.2 0 .34-.43.33-.95-.01-.52-.18-.94-.37-.93-.2 0-.35.43-.33.95zm-1.35.04c.01.52.18.94.37.93.2 0 .34-.43.33-.95-.01-.52-.18-.94-.37-.93-.2 0-.34.43-.33.95zm-4.73.12c.02.52.19.94.38.93.2 0 .34-.43.33-.95-.02-.52-.18-.94-.38-.93-.2 0-.34.43-.33.95zm-1.35.03c.02.52.18.94.38.94.2-.01.34-.44.32-.96 0-.52-.18-.94-.37-.93-.2 0-.34.43-.33.95zm-1.35.03c.02.52.18.94.37.94.2 0 .35-.43.34-.95-.02-.52-.19-.94-.38-.94-.2.01-.34.43-.33.95z"/><path fill="#383A39" d="M129.2 88.01l.21-2.13c.62-.35 1.03-.9 1.02-1.5.32.47 1.73 4.12.22 4.63l-12.1.3c-.73.02-.72-.58.2-1.4 3.48-.31 10.45.1 10.45.1z"/><path fill="#EBC09B" d="M102.83 48.91c.28.23.34.64.11.93l-2.45 3.2a.65.65 0 01-.93.12l-1.31-1a.66.66 0 01-.12-.93l2.45-3.2a.66.66 0 01.93-.13l1.32 1.01z"/><path fill="#87170B" d="M67.08 84.88c-.42.42-1.09.42-1.5 0a1.06 1.06 0 010-1.49l36.14-36.14a1.06 1.06 0 011.5 1.5L67.08 84.87z"/><path fill="#CE6128" d="M110.85 25.32c.17.56.22 1.13.17 1.68l1.66 5.35-7.6 3.43-2.14-7.17a4.3 4.3 0 117.91-3.29z"/><path fill="#2674BA" d="M108.6 25.5c-1.31-2.96-2.75-3.06-2.93-3.06a4.3 4.3 0 015.35 4.56l1.66 5.35-2.86 1.29-1.85-3.71s2.04-1.27.63-4.43z"/><path fill="#E2762D" d="M103.14 21.12s-2.14 5.08.08 9.7l6.58 8.82 2.16 7.53 10.72-3.38.3-1.7s-2.7-11.5-4.95-15.45c-.47-.81-2.82-4.5-2.82-4.5s-3.78-5.77-12.07-1.02z"/><path fill="#CE6128" d="M115.22 22.13s2.34 3.7 2.8 4.5c2.13 3.74 4.67 14.47 4.67 14.47l-1.02 2.36-6.42 1.3s-13.03-13.52-9.53-22.44c.42-1.08.87-2.01 1.34-2.83a8 8 0 018.16 2.64z"/><path fill="#D09E77" d="M108.55 20.5l-5.07 3.26-3.99-6.17 5.08-3.28z"/><path fill="#DEB18A" d="M102.52 17.8l-.82-2.22a1.4 1.4 0 01-.05-.9 1.37 1.37 0 012.68.45l-.19 1.48-.09.7a1 1 0 01-1.44.75v-.01l-.1-.25z"/><path fill="#DEB18A" d="M103.55 19.43l-.94-1.37v-.01l-.1-.25-.49-1.35-.31-.87a1.4 1.4 0 01-.06-.9l-.97.52c-.26-.46-.59-1.14-.77-1.25-.27-.18-1.69-2.5-1.84-2.55a10 10 0 00-1.56.75c-1.25 3.52 1.63 5.24 3.26 5.81.6.22.98.12.98.12a4.85 4.85 0 00-1.01 2.64c-.1 1.14.2 2.2.74 3.03a1.56 1.56 0 01.02 1.62l2.72-4.75.27-.46c.08-.1.12-.23.14-.36a.68.68 0 00-.08-.37z"/><path fill="#DEB18A" d="M97.67 25.06a1.57 1.57 0 011.61-2.03 1.57 1.57 0 011.44 1.68 1.56 1.56 0 01-3.05.35z"/><path fill="#EBC09B" d="M105.15 11.15c-.64-2.54-3-6.02-8.73-3.7-6.42 2.61-3.91 8.48-2.95 9.8l.03.06c.23.46.66.74 1.06.7a.77.77 0 00.24-.08l-.03.44-.23 3.06.01.3c.14.3.62.35 1.08.13.2-.1.38-.25.49-.4l1.55 3.6a1.57 1.57 0 011.61-2.03c.5.04.94.32 1.2.72a4.85 4.85 0 01-.74-3.03 4.89 4.89 0 011-2.63l.01-.01-.29-.02a5.9 5.9 0 01-.7-.1 3.12 3.12 0 00.24-1.8v-.12c.03-.4.3-.71.65-.83l1-.53a1.37 1.37 0 011.73-.93l1.96-1.07a7.04 7.04 0 00-.2-1.53z"/><path fill="#B08874" d="M97.3 11.22l-5.13 1.82a8.01 8.01 0 001.3 4.22v-.01l.03.06c.23.46.66.74 1.06.7a.77.77 0 00.24-.08l-.03.44v.05c1.29-.93 4.06-3.1 4.5-5.03.57-2.54-1.96-2.17-1.96-2.17z"/><path fill="#383A39" d="M105.34 12.69a6.62 6.62 0 00-1.65-4.33l-.1-.12-.33-.32c-1.4-1.21-3.56-1.8-6.84-.46-.6.25-1.13.52-1.58.82v-.01s-2.67 1.35-3.16 2.89c-.26.8-.16 2.44.52 2.46a16.5 16.5 0 005.37-1.53 6.9 6.9 0 001.16 2.41c.38.5.84.94 1.34 1.26a4.4 4.4 0 001.95.69l-.32-.87a1.4 1.4 0 01-.05-.9 1.37 1.37 0 012.68.45v.06c.29.12.6.19.9.2l-.05-1.07a6.5 6.5 0 00.16-1.63z"/><path fill="#5E6E66" d="M107.56 18.5s-4.3 4.21-4.44 5.53c.06.66.28 1.16.28 1.16s4.7-4.75 5.3-5.31c-.2-.3-1.14-1.37-1.14-1.37z"/><g fill="#EBC09B"><path d="M101.47 46.61l2.41 2.82 9.75-7.18-.31-3.42.24-2.32z"/><path d="M107.58 39.35c-2.09 1.78-5.94 10-4.67 9.06 3.23-2.38 5.75-3.98 7.84-5.77 2.08-1.78 3.22-3.7 2.19-4.91-1.03-1.2-3.28-.17-5.36 1.62z"/><path d="M110.16 37.36c.4 4.55-.47 5.9 1.46 5.73 1.92-.18 2.98-6.05 2.58-10.6s-2.12-6.04-4.04-5.87c-1.93.18-.4 6.2 0 10.74zm-6 11.8l-2.69-2.55-4.55 2.5.39 2.55 3.02-.04 2.64-.9z"/><path d="M113.11 30.47l-6.37.12 1.2 10.84 5.17.23z"/><ellipse cx="109.3" cy="44.76" rx="1.02" ry="3.66" transform="rotate(54.62 109.3 44.76)"/></g><path fill="#CE6128" d="M113.78 23.54a4.5 4.5 0 01-.11 1.68l.73 5.54-8.07 2.11-.9-7.42a4.3 4.3 0 118.35-1.91z"/><path fill="#E2762D" d="M111.53 23.33c-.8-3.14-2.19-3.48-2.37-3.51a4.3 4.3 0 014.5 5.4l.74 5.54-3.03.8-1.2-3.97s2.22-.9 1.36-4.26z"/><path fill="#5E6E66" d="M79.46 85.28c0 1.1-.89 1.98-1.98 1.98h-2.8a1.98 1.98 0 010-3.95h2.8c1.1 0 1.98.88 1.98 1.97z"/><circle cx="68.67" cy="82.99" r="7.79" fill="#5E6E66"/><path fill="#5E6E66" d="M83.69 87.26a3.52 3.52 0 11-7.05 0 3.52 3.52 0 017.05 0z"/><path fill="#A5B3AB" d="M82.8 87.26a2.63 2.63 0 11-5.27 0 2.63 2.63 0 015.26 0z"/><path fill="#5E6E66" d="M80.87 87.26a.7.7 0 01-.7.7.7.7 0 110-1.4c.38 0 .7.3.7.7z"/><path fill="#91A5A5" d="M68.67 89.7a6.72 6.72 0 11.02-13.44 6.72 6.72 0 01-.02 13.44zm0-12.58a5.87 5.87 0 10.01 11.75 5.87 5.87 0 000-11.75z"/><path fill="#91A5A5" d="M68.96 82.97a4.1 4.1 0 014.1-4.03v-.57A4.67 4.67 0 0068.38 83l.57-.03zm-.56.03a4.1 4.1 0 01-4.1 4.04v.56a4.67 4.67 0 004.66-4.63l-.57.03z"/><path fill="#91A5A5" d="M68.69 83.27a4.1 4.1 0 014.04 4.1h.56a4.67 4.67 0 00-4.63-4.67l.03.57zm-.03-.57a4.1 4.1 0 01-4.04-4.1h-.56a4.67 4.67 0 004.63 4.67l-.03-.57z"/><g fill="#91A5A5"><path d="M68.89 83.18a4.1 4.1 0 015.75.04l.4-.4a4.67 4.67 0 00-6.58-.02l.43.38z"/><path d="M68.46 82.8a4.1 4.1 0 01-5.75-.04l-.4.4a4.67 4.67 0 006.57.02l-.42-.38z"/></g><path fill="#91A5A5" d="M68.49 83.2a4.1 4.1 0 01-.05 5.75l.4.4a4.67 4.67 0 00.02-6.57l-.37.42zm.37-.42a4.1 4.1 0 01.05-5.75l-.4-.4a4.67 4.67 0 00-.02 6.57l.37-.42z"/><path fill="#87170B" d="M75.35 90.61l1.68-7.3h4.57s2.87-.14 2.87 2.87c-2.79 0-4.56-.2-4.56-.2s.12 4.63-4.56 4.63z"/><circle cx="78.09" cy="84.52" r=".79" fill="#91A5A5"/><path fill="#97CE8B" d="M86.84 74.24c.52.37.96.93 1 1.24.02.31-.37.27-.89-.1-.51-.38-.95-.93-.98-1.24-.03-.31.36-.27.87.1zm-.86 6.32c.13.62.08 1.33-.1 1.58-.2.25-.45-.05-.58-.67-.13-.62-.08-1.33.11-1.58s.44.05.57.67zm7.03-5.03c-.2 1.2-.74 2.36-1.22 2.6s-.68-.51-.48-1.71c.2-1.2.75-2.37 1.22-2.61.47-.25.69.53.48 1.72zm8.66-8.22c-.05.4-.21.78-.35.86-.15.07-.23-.18-.17-.58.05-.4.2-.77.35-.85.15-.08.22.18.17.58zm5.59 8.46c-.37.16-.78.22-.92.14-.14-.09.04-.29.41-.44.36-.16.77-.22.91-.14.15.09-.04.29-.4.44zm-19.4 12.21c-.36.16-.77.22-.91.14-.15-.09.04-.29.4-.44s.78-.22.92-.14c.14.1-.04.29-.41.44zm3.28-4.28c-.3.27-.67.45-.83.42-.16-.04-.05-.28.24-.55.3-.27.67-.46.83-.42.16.03.05.28-.24.55zm-3.45 1.03c-.19.35-.46.66-.62.68-.17.02-.15-.24.03-.6s.46-.66.62-.68c.16-.03.15.24-.03.6zm7.44-4.38c-.78.69-1.74 1.16-2.15 1.07-.41-.1-.13-.74.65-1.42.77-.69 1.73-1.16 2.14-1.06.42.1.13.73-.64 1.41zm1.68-13.18c-.18.8-.58 1.55-.91 1.7-.32.14-.44-.38-.26-1.17.18-.8.59-1.56.9-1.7.33-.15.45.38.27 1.17zM91.7 86.4c-.37.15-.78.2-.91.12-.14-.09.04-.28.4-.44.38-.15.79-.2.93-.12.13.09-.05.28-.42.44zm-1.08 1.2c-.34-.2-.62-.51-.62-.67-.01-.17.25-.13.6.08.33.22.6.52.62.68 0 .17-.26.13-.6-.08zm6.25-4.04c-.96.39-2.02.51-2.38.28-.35-.23.13-.73 1.09-1.11.95-.39 2.02-.52 2.38-.28.35.23-.13.73-1.1 1.11zm5.67-1.58c-.64-.17-1.3-.56-1.46-.86-.17-.3.2-.42.85-.24.63.17 1.29.55 1.46.86.17.3-.21.41-.85.24zm-1.01-6.81c-.7.77-1.6 1.34-2.01 1.3-.43-.06-.2-.72.48-1.48.7-.77 1.6-1.35 2.02-1.3.42.05.2.71-.49 1.48z"/><ellipse cx="93.69" cy="6.89" fill="#CE6128" rx="1.22" ry=".61" transform="rotate(-23.05 93.68 6.89)"/><path fill="#E2762D" d="M104.62 9.47a9.1 9.1 0 00-3.72-3.85c-2.76-1.44-9.3 1.53-11 3.75-1.4 1.84-.3 4.77 1.04 6.69l13.67-6.6z"/><path fill="#A5B3AB" d="M84.49 19.05l5.55-2.55 3.93-1.93c-.18 2.28-3.92 6.53-9.48 4.48z"/><path fill="#CE6128" d="M96.6 13.28a6.87 6.87 0 00-5.38-5.12c-.55.4-1 .81-1.3 1.21-1.41 1.84-.32 4.77 1.03 6.69l5.65-2.78z"/></svg>